<?xml version="1.0" standalone="no"?>
<!DOCTYPE svg PUBLIC "-//W3C//DTD SVG 1.1//EN" "http://www.w3.org/Graphics/SVG/1.1/DTD/svg11.dtd" >
<svg xmlns="http://www.w3.org/2000/svg">
<metadata></metadata>
<defs>
<font id="uni_sans_heavy_italicitalic" horiz-adv-x="1396" >
<font-face units-per-em="2048" ascent="1548" descent="-500" />
<missing-glyph horiz-adv-x="454" />
<glyph unicode="&#xfb01;" horiz-adv-x="1202" d="M-49 -111l135 -221q273 156 301 371l82 579h176l47 336h-176l12 88q8 55 65.5 87.5t135.5 13.5l43 313q-107 16 -204 -2.5t-176 -68t-132.5 -137.5t-69.5 -206l-141 -1003q-2 -17 -3 -22.5t-7 -24.5t-15 -32t-28 -32.5t-45 -38.5zM696 0h344l148 1061h-344zM850 1309 q16 112 113 164q83 44 170 20q84 -24 108 -99q13 -38 6 -85q-15 -109 -110 -161q-83 -46 -170 -24q-85 22 -111 98q-13 39 -6 87z" />
<glyph unicode="&#xfb02;" horiz-adv-x="1292" d="M-39 -113q32 23 53 45t29.5 44t11 31t4.5 30l142 1003q16 118 69.5 206t132 137.5t175.5 68t204 2.5l-43 -313q-78 19 -135 -13.5t-65 -87.5l-13 -88h176l-47 -336h-176l-82 -579q-31 -217 -301 -371zM760 397l147 1053h346l-147 -1049q-7 -51 30.5 -79.5t112.5 -10.5 l-43 -301q-111 -29 -199.5 -9t-148.5 73.5t-86 138t-12 184.5z" />
<glyph horiz-adv-x="2048" />
<glyph horiz-adv-x="2048" />
<glyph unicode="&#xd;" horiz-adv-x="2048" />
<glyph unicode=" "  horiz-adv-x="454" />
<glyph unicode="&#x09;" horiz-adv-x="454" />
<glyph unicode="&#xa0;" horiz-adv-x="454" />
<glyph unicode="!" horiz-adv-x="614" d="M70 182q12 86 79 146.5t152 60.5q86 0 138 -60.5t40 -146.5q-12 -85 -80.5 -143.5t-154.5 -58.5q-85 0 -135.5 58.5t-38.5 143.5zM119 451l123 1007h417l-163 -1007h-377z" />
<glyph unicode="&#x22;" horiz-adv-x="866" d="M141 858l84 594h355l-127 -594h-312zM561 858l84 594h354l-125 -594h-313z" />
<glyph unicode="#" horiz-adv-x="1447" d="M35 346l106 299h250q0 1 13.5 34t13.5 34h-252l100 311h281l139 330h324l-142 -330h86l142 330h338l-146 -330h228l-121 -311h-238l-27 -68h256l-112 -299h-283q-23 -58 -149 -348h-324l150 348h-86q-9 -21 -150 -348h-334l150 348h-213zM705 629h98q8 30 41 100h-96 q-33 -65 -43 -100z" />
<glyph unicode="$" horiz-adv-x="1114" d="M6 283l287 180q31 -53 61.5 -73.5t73.5 -27.5l29 199q-380 92 -324 453q32 163 155 270t290 143l18 121h264l-16 -118q107 -14 181.5 -69t137.5 -175l-268 -156q-25 61 -98 74l-31 -230q42 -11 77 -23t70.5 -28.5t62.5 -37.5t51.5 -47.5t39.5 -60t24 -73.5t8 -90 t-12 -108q-35 -158 -157.5 -262.5t-286.5 -143.5l-20 -133h-265l19 131q-123 4 -218 78.5t-153 206.5zM457 1010q-16 -93 59 -121l35 233q-39 -20 -64 -49.5t-30 -60.5v-2zM676 334q39 20 64 49.5t30 60.5v2q8 44 -7.5 76t-53.5 45z" />
<glyph unicode="%" horiz-adv-x="1509" d="M53 14l1227 1557l240 -176l-1225 -1551zM150 1112q23 163 120.5 260.5t231.5 97.5q149 0 216 -94t44 -268q-24 -166 -124.5 -264.5t-236.5 -98.5q-146 0 -211.5 94t-39.5 273zM379 1110q-17 -121 53 -121q68 0 86 119q14 123 -51 123q-33 0 -57 -30.5t-31 -90.5zM842 354 q23 163 121 261t231 98q149 0 216 -94.5t44 -268.5q-24 -166 -124 -264t-236 -98q-146 0 -212 94t-40 272zM1071 352q-17 -121 53 -121q68 0 86 119q14 123 -51 123q-33 0 -57 -30.5t-31 -90.5z" />
<glyph unicode="&#x26;" horiz-adv-x="1294" d="M55 461q18 126 85 212.5t184 151.5q-52 64 -67.5 139t1 145t60.5 136t106.5 114.5t144.5 76.5t168 26q76 -2 143 -30t115.5 -75.5t71 -118t10.5 -153.5q-16 -117 -73 -195.5t-150 -137.5l100 -150l148 113l168 -262l-152 -111l225 -340h-430l-82 117 q-82 -64 -177.5 -96.5t-186 -32t-172.5 32.5t-140.5 90t-86.5 148.5t-13 199.5zM404 435.5q-1 -37.5 16 -70.5q31 -55 102.5 -55.5t130.5 55.5l-149 208q-46 -23 -72.5 -61.5t-27.5 -76zM582 1079q-3 -17 6 -40t19 -39.5t32 -47.5q56 34 84.5 64.5t34.5 68.5q5 36 -15 62.5 t-53 26.5q-39 0 -71.5 -28t-36.5 -67z" />
<glyph unicode="'" horiz-adv-x="468" d="M152 856l84 594h348l-115 -594h-317z" />
<glyph unicode="(" horiz-adv-x="669" d="M115 711q35 247 153.5 491t304.5 426l220 -158q-303 -374 -355.5 -770t144.5 -776l-285 -174q-123 218 -169 469.5t-13 491.5z" />
<glyph unicode=")" horiz-adv-x="581" d="M-125 -80q194 255 287.5 515.5t77 520.5t-151.5 492l256 156q135 -184 186 -417t17 -476q-33 -240 -148.5 -489.5t-302.5 -467.5z" />
<glyph unicode="*" horiz-adv-x="905" d="M102 1010l140 323l194 -98v219h336l-70 -217l228 92l49 -325l-234 -29l144 -160l-291 -203l-82 207l-135 -207l-248 199l191 172z" />
<glyph unicode="+" horiz-adv-x="1220" d="M98 483l49 348h359l47 349h346l-47 -349h344l-49 -348h-344l-49 -350h-346l49 350h-359z" />
<glyph unicode="," horiz-adv-x="645" d="M-80 -305l244 522h385l-277 -522h-352z" />
<glyph unicode="-" horiz-adv-x="778" d="M76 420l49 348h639l-49 -348h-639z" />
<glyph unicode="." horiz-adv-x="618" d="M94 195q12 85 79.5 143.5t152.5 58.5t136.5 -58.5t39.5 -143.5q-12 -86 -80.5 -146.5t-153.5 -60.5t-135.5 60.5t-38.5 146.5z" />
<glyph unicode="/" horiz-adv-x="811" d="M-100 -27l825 1592l305 -113l-825 -1595z" />
<glyph unicode="0" horiz-adv-x="1257" d="M98 430l84 596q12 90 54 165t101 126t132.5 87t149 52.5t151.5 16.5t147.5 -16.5t134.5 -52.5t107 -87t64 -126t8 -165l-84 -596q-15 -110 -74 -198t-143 -140t-178.5 -79t-190.5 -27q-76 0 -147 16.5t-134.5 52t-108 86.5t-65 125.5t-8.5 163.5zM446 426q-3 -53 44 -91 t114 -38q65 0 124 38t71 91l84 600q3 53 -46.5 89t-113.5 36q-67 0 -124 -35.5t-69 -89.5z" />
<glyph unicode="1" horiz-adv-x="729" d="M76 1018l442 405h277l-199 -1423h-330l131 946l-151 -96z" />
<glyph unicode="2" horiz-adv-x="1103" d="M-20 193l702 684q90 98 65 180q-18 58 -83 76q-84 24 -171 -36q-57 -38 -100 -106l-254 150q109 165 257.5 249.5t301.5 79.5q116 -4 204.5 -42.5t139 -100t71.5 -139.5t9 -164q-15 -103 -76 -209t-161 -197l-363 -303l176 35h328l-49 -348h-934z" />
<glyph unicode="3" horiz-adv-x="1105" d="M0 229l268 220q32 -65 100 -96t134.5 -26.5t120.5 38t61 86.5q8 58 -27 96.5t-110 42.5h-225l43 305h217q34 0 61.5 19.5t41 47.5t17.5 59t-10 54q-25 49 -86 61t-131 -12.5t-121 -74.5l-186 188q106 110 237 173t254 63q140 0 247 -67t151 -200v2q36 -115 -6 -241.5 t-156 -192.5q92 -52 124.5 -152t18.5 -200q-16 -116 -86 -211t-167.5 -151.5t-214.5 -79t-225.5 -6t-202 82t-142.5 172.5z" />
<glyph unicode="4" horiz-adv-x="1130" d="M31 530l800 891h302l-113 -809h110l-43 -297h-110l-43 -311h-350l43 311h-469zM438 608h256l51 334z" />
<glyph unicode="5" horiz-adv-x="1153" d="M41 256l297 201q24 -53 68.5 -82t93.5 -28.5t95.5 18t80.5 57t43 88.5q12 62 -3 110.5t-48.5 75t-81.5 35.5t-99.5 -1.5t-105 -43t-94.5 -82.5h-148l119 850l860 -2l-45 -324h-567l-23 -153q87 31 171 34t153 -19t125.5 -66t93 -104t51 -138t2.5 -164q-14 -102 -64 -198 t-127.5 -172.5t-190 -120.5t-238.5 -39q-87 4 -161.5 30t-144 86.5t-112.5 151.5z" />
<glyph unicode="6" horiz-adv-x="1216" d="M86 436l82 582q13 89 58 167t110 133t146.5 93t166.5 53t170.5 7.5t158 -37.5t129.5 -88.5t85 -139.5l-277 -147q-29 59 -93 84.5t-128 17t-116 -47.5t-60 -97l-20 -154q75 49 159.5 69.5t161 13t146 -41.5t117.5 -87.5t70.5 -130t10.5 -163.5l-12 -86q-12 -87 -51 -161 t-96.5 -126t-130 -89t-151.5 -54.5t-161 -17.5t-156.5 17.5t-138 54t-107.5 88.5t-64 126t-9 162zM436 424q-11 -72 76 -102t182.5 -0.5t106.5 102.5l14 108q10 68 -69 99q-78 30 -171 7q-97 -24 -119 -87l-5 -19z" />
<glyph unicode="7" horiz-adv-x="1009" d="M-76 0l723 1073h-553l49 348h936l72 -196l-834 -1225h-393z" />
<glyph unicode="8" horiz-adv-x="1183" d="M60.5 429.5q7.5 89.5 65.5 181.5t161 163q-60 43 -80.5 113.5t-11.5 146.5q14 97 57 174t99 123.5t125 77t131 42t122 11.5h29q74 0 139 -14.5t121.5 -48t94 -83.5t53 -126t1.5 -170q-7 -56 -50.5 -130.5t-106.5 -113.5q84 -47 114.5 -138.5t18.5 -180.5 q-37 -227 -198.5 -354t-393.5 -115h-29q-104 -11 -195.5 22.5t-152.5 96t-91 148t-22.5 175zM424 404q30 -79 143 -82h35q113 0 167 82q44 66 25 137q-19 68 -85 87q-26 8 -58 5h-47q-97 3 -153.5 -73.5t-26.5 -155.5zM535.5 953.5q29.5 -68.5 123.5 -68.5q108 0 159 75 q41 60 21 123q-20 64 -91 77q-15 3 -31 3h-31q-89 -2 -134.5 -71.5t-16 -138z" />
<glyph unicode="9" horiz-adv-x="1239" d="M86 252l285 172q25 -56 75.5 -87t106 -32.5t108 13t89.5 48.5t43 76l20 154q-75 -49 -159.5 -69.5t-161.5 -13t-146 41.5t-117.5 87.5t-71 130t-10.5 163.5l13 86q12 87 51 161t96.5 126t130 89t151.5 54.5t161 17.5t156.5 -17.5t138 -54t107.5 -88.5t64 -126t9 -162 l-82 -582q-13 -94 -60 -174t-114.5 -136t-152 -93.5t-172.5 -51.5t-176.5 -5t-163 40.5t-132.5 91t-86 140.5zM496 926q-10 -68 69 -99q78 -30 171 -7q97 24 119 87q4 9 5 19l14 108q11 72 -75.5 102t-182 0.5t-106.5 -102.5z" />
<glyph unicode=":" horiz-adv-x="522" d="M35 217q13 89 80.5 147t152.5 58q86 0 136.5 -58.5t37.5 -146.5q-10 -85 -78 -145t-153 -60q-84 0 -135.5 60t-40.5 145zM119 805q10 84 79 142.5t154 58.5t135 -58t39 -143q-12 -86 -79 -146.5t-152 -60.5t-136.5 60.5t-39.5 146.5z" />
<glyph unicode=";" horiz-adv-x="546" d="M-98 -262l194 522h383l-260 -522h-317zM123 782q12 86 77.5 143.5t155.5 57.5q87 0 135.5 -57.5t36.5 -143.5q-12 -88 -77 -147.5t-152 -59.5q-90 0 -139 59t-37 148z" />
<glyph unicode="&#x3c;" horiz-adv-x="897" d="M98 487l31 224l817 481l-57 -408l-354 -186q113 -64 303 -178l-58 -408z" />
<glyph unicode="=" horiz-adv-x="1087" d="M76 236l45 319h889l-45 -319h-889zM133 653l45 318h889l-45 -318h-889z" />
<glyph unicode="&#x3e;" horiz-adv-x="901" d="M39 12l57 408l373 178l-322 186l58 408l684 -481l-31 -224z" />
<glyph unicode="?" horiz-adv-x="935" d="M113 1196q57 86 131 147t149.5 90.5t154.5 35.5t149 -11.5t130.5 -57t102 -95.5t59.5 -132t6 -161q-10 -69 -40 -134t-79.5 -121.5t-124.5 -96t-165 -52.5l-54 -239h-307l45 467q85 -34 162 -26.5t133 56.5t66 123q11 71 -51 107.5t-148.5 16t-136.5 -94.5zM160 133 q10 81 71 132.5t140 51.5q78 0 123.5 -51.5t35.5 -132.5q-12 -78 -73.5 -132t-137.5 -54q-78 0 -124.5 54t-34.5 132z" />
<glyph unicode="@" horiz-adv-x="1536" d="M102 698q30 139 106 272.5t183.5 241t253.5 173t303 65.5q106 0 211 -27q128 -38 230.5 -125t142.5 -192q68 -180 -4 -404t-240 -354q-57 -45 -135 -74.5t-152 -29.5q-88 0 -143 43q-68 -39 -149 -39q-161 0 -247 113t-61 282q17 127 86 241.5t171.5 185.5t209.5 71 q112 0 203 -82l43 43l143 -37q-40 69 -134.5 106t-190.5 37q-119 0 -225 -50t-179.5 -131.5t-121.5 -180.5t-62 -201q-22 -160 40 -276t190 -156t311 8l26 -196q-142 -43 -262 -43q-135 0 -249 52t-190.5 143.5t-106.5 227t-1 293.5zM678 570q7 -21 18 -38q23 -32 78 -32 q58 0 96 32l109 302q-79 97 -170 53q-70 -34 -112 -127q-46 -104 -19 -190zM1114 489q50 21 90.5 65.5t64.5 99.5t37 114t10.5 114t-18.5 95l-14 37z" />
<glyph unicode="A" horiz-adv-x="1306" d="M-72 0l709 1450h334l315 -1450h-393l-55 291h-387l-129 -291h-394zM580 616h217l-35 424h-27z" />
<glyph unicode="B" horiz-adv-x="1269" d="M59 0l203 1452h582q103 0 186.5 -31t139.5 -87q56 -57 78 -141q13 -48 12 -101q0 -40 -7 -84q-11 -60 -59 -130t-125 -106q66 -36 106.5 -88t52.5 -108q9 -46 9 -87q-1 -9 -1 -18q-2 -50 -17 -96q-113 -375 -568 -375h-592zM473 322h213q104 0 156 76q31 43 31 89 q0 20 -6 40q-20 69 -95 86q-21 5 -45 5h-213zM551 883h213q86 0 131 69q25 39 25 79q0 20 -6 40q-20 64 -97 71q-8 1 -16 1h-213z" />
<glyph unicode="C" horiz-adv-x="1177" d="M68 477l69 494q17 119 79.5 215t153 156t197 92t217.5 32q56 0 109 -9.5t108 -33.5t100 -61t84 -95.5t62 -133.5l-315 -121q-21 52 -70 82q-49 32 -106 34h-16q-50 0 -96 -13q-54 -15 -93.5 -53.5t-46.5 -90.5l-70 -494q-2 -11 -2 -22q0 -68 68 -106q48 -27 107 -27 q36 0 77 10q105 28 156 123l299 -148q-109 -165 -264 -245t-306 -80q-109 0 -205 31.5t-169 91.5q-73 61 -108 157q-24 66 -24 143q0 35 5 72z" />
<glyph unicode="D" horiz-adv-x="1292" d="M57 0l203 1450h543q89 0 168 -17.5t145.5 -56t111.5 -94.5q44 -56 64 -137q11 -47 12 -100q0 -38 -6 -80l-69 -488q-14 -97 -55.5 -177.5t-102 -135t-138 -92.5t-161 -55t-172.5 -17h-543zM473 344h186q76 0 135 37.5t66 95.5l70 488q1 8 1 15q0 50 -41 86 q-47 42 -122 42h-186z" />
<glyph unicode="E" horiz-adv-x="1171" d="M51 0l203 1452h1010l-50 -346h-639l-30 -217h588l-46 -326h-587l-31 -217h639l-47 -346h-1010z" />
<glyph unicode="F" horiz-adv-x="1128" d="M51 0l203 1450h1010l-50 -348h-639l-36 -260h559l-47 -342h-559l-70 -500h-371z" />
<glyph unicode="G" horiz-adv-x="1323" d="M82 481l70 496q13 95 56.5 176.5t106 138.5t141.5 97.5t164.5 59.5t172.5 19q74 0 142.5 -16.5t132 -51t112 -96.5t73.5 -145l-327 -141q-15 56 -59 89t-99 35q-8 1 -15 1q-47 0 -94 -13q-54 -16 -93.5 -57t-47.5 -96l-69 -496q-2 -14 -2 -28q0 -82 85 -119 q50 -21 103 -21t109 22q112 43 128 146l7 47h-232l43 314h584l-49 -361q-14 -97 -57 -179.5t-105.5 -140t-141 -98t-163.5 -60t-174 -19.5q-87 0 -167 19.5t-147.5 60t-114 98t-67.5 140.5q-12 49 -12 103q0 37 6 76z" />
<glyph unicode="H" horiz-adv-x="1392" d="M63 0l203 1450h369l-78 -549h418l78 549h368l-202 -1450h-369l76 547h-418l-76 -547h-369z" />
<glyph unicode="I" horiz-adv-x="589" d="M43 0l203 1450h366l-202 -1450h-367z" />
<glyph unicode="J" horiz-adv-x="1243" d="M41 424l356 72q2 -56 29 -95t67 -54q39 -15 84 -15h3q47 1 88.5 18t71.5 49t36 72l90 647h-329l47 332h692l-137 -979q-30 -216 -210 -354q-155 -119 -358 -137q-33 -3 -64 -3q-162 0 -283 78q-167 108 -182 323q-1 23 -1 46z" />
<glyph unicode="K" horiz-adv-x="1247" d="M45 0l203 1450h368l-75 -537l469 537h456l-673 -713q80 -113 235 -369t234 -368h-461l-303 518l-15 -16l-69 -502h-369z" />
<glyph unicode="L" horiz-adv-x="1077" d="M51 0l203 1450h369l-154 -1088h590l-49 -362h-959z" />
<glyph unicode="M" horiz-adv-x="1603" d="M66 0l202 1450h367l205 -709l407 709h367l-203 -1450h-369l60 418l67 293l-16 2l-260 -498h-252l-125 498l-14 -2l-13 -293l-57 -418h-366z" />
<glyph unicode="N" d="M59 0l203 1450h348l264 -619l82 -290l17 2q-10 250 -12 250l92 657h364l-203 -1450h-370l-248 571l-86 291l-16 -2q10 -280 12 -280l-80 -580h-367z" />
<glyph unicode="O" d="M94 467l72 516q17 121 81.5 218t158.5 157t204.5 91.5t225.5 31.5q92 0 175.5 -19.5t155 -60.5t121.5 -99t72 -140q14 -51 13 -107q0 -35 -5 -72l-72 -516q-17 -120 -82 -217t-159 -157t-204.5 -92t-225.5 -32t-216.5 32t-179 92t-115.5 157q-26 67 -25 144q0 36 5 73z M461 467q-2 -12 -2 -22q0 -71 81 -110q57 -27 126 -27q35 0 74 7q121 21 169 95q16 27 21 57l71 516q1 11 1 21q0 77 -82 116q-56 28 -125 28q-36 0 -75 -8q-118 -23 -166 -97q-17 -28 -22 -60z" />
<glyph unicode="P" horiz-adv-x="1261" d="M59 0l203 1450h580q103 0 186.5 -28.5t138 -78t89.5 -115.5q34 -64 44 -138q5 -36 6 -73q0 -39 -6 -79q-14 -99 -61 -189.5t-121 -164t-182.5 -117t-235.5 -43.5h-215l-59 -424h-367zM530 750h213h2q98 0 154 85q39 58 39 122q0 17 -3 34q-14 84 -85 109q-25 8 -55 8 h-213z" />
<glyph unicode="Q" horiz-adv-x="1384" d="M94 467l72 516q17 121 81.5 218t158.5 157t204.5 91.5t225.5 31.5q92 0 175.5 -19.5t155 -60.5t121 -99t72.5 -140q13 -51 13 -107q0 -35 -5 -72l-72 -516q-20 -141 -110 -256l96 -115l-227 -182l-103 123q-154 -68 -327 -68q-115 0 -216.5 32t-179 92t-115.5 157 q-25 67 -25 144q0 36 5 73zM461 467q-2 -13 -2 -25q0 -34 15 -62q22 -40 61.5 -60t89.5 -25q10 -1 19 -1q40 0 79 17l-102 123l227 176l86 -102l67 475q2 12 2 23q0 87 -99 124q-56 21 -113 21q-60 0 -121 -22q-123 -43 -138 -146z" />
<glyph unicode="R" horiz-adv-x="1277" d="M61 0l203 1450h580q115 0 206 -27.5t156.5 -83t94.5 -149.5q19 -62 19 -136q0 -39 -5 -81q-27 -195 -118 -313.5t-232 -161.5l348 -498h-457l-295 461h-65l-64 -461h-371zM541 776h215q105 0 163 81q36 51 36 106q0 18 -4 37q-16 76 -90 100q-26 8 -58 8h-215z" />
<glyph unicode="S" horiz-adv-x="1163" d="M29 242l262 217q57 -84 165 -120q62 -21 120 -21q41 0 79 11q91 26 107 101q2 7 2 15q0 30 -28 55q-34 31 -86 48.5t-115 26.5q-88 14 -161.5 49.5t-129.5 91.5t-81 138q-15 50 -15 107q0 36 6 75q20 104 76.5 187.5t136 136.5t174.5 81.5t196 28.5q145 0 261 -51.5 t204 -179.5l-266 -184q-48 59 -116 89q-64 29 -123 29h-8q-63 -2 -112.5 -36t-60.5 -95v-8q0 -44 41 -74q45 -32 133 -53q46 -9 83.5 -17.5t80 -22t75.5 -29t66 -38t56.5 -48.5t43 -60.5t28 -75.5t8.5 -92t-11 -110q-30 -134 -133 -235t-234 -149t-268 -48 q-134 0 -254.5 66.5t-201.5 193.5z" />
<glyph unicode="T" horiz-adv-x="1155" d="M113 1104l49 348h1153l-49 -348h-392l-153 -1104h-371l154 1104h-391z" />
<glyph unicode="U" horiz-adv-x="1384" d="M126 354q-3 26 -3 52q0 38 6 79l135 965h371l-135 -965q-2 -14 -2 -28q0 -79 72 -120q49 -28 108 -27q31 0 65 7q104 23 149 102q18 31 23 66l136 965h370l-135 -965q-34 -236 -228 -377q-164 -119 -381 -132q-24 -1 -47 -1q-181 0 -316 83q-167 104 -188 296z" />
<glyph unicode="V" horiz-adv-x="1255" d="M82 1452h393l129 -709l10 -344h17l108 342l330 711h393l-725 -1450h-336z" />
<glyph unicode="W" horiz-adv-x="1892" d="M117 1450h381l73 -694l-12 -307h16l78 305q50 117 80 181.5t70 148t84 178.5h278l78 -510l4 -303h13l77 303l275 698h379l-621 -1450h-340l-74 401v332h-14l-98 -330l-170 -403h-340z" />
<glyph unicode="X" horiz-adv-x="1282" d="M-102 0l508 723l-306 727h428l179 -496l323 496h426l-508 -727l305 -723h-426l-186 494l-315 -494h-428z" />
<glyph unicode="Y" horiz-adv-x="1187" d="M57 1450h426l185 -553l340 553h430l-631 -879l-80 -571h-367l80 571z" />
<glyph unicode="Z" horiz-adv-x="1144" d="M-43 135l762 975h-582l47 340h1028l88 -123l-765 -993l591 4l-47 -338h-1052z" />
<glyph unicode="[" horiz-adv-x="555" d="M-8 -205l231 1659h492l-47 -340h-142l-137 -981h141l-49 -338h-489z" />
<glyph unicode="\" horiz-adv-x="796" d="M27 1456l346 115l401 -1579l-342 -111z" />
<glyph unicode="]" horiz-adv-x="571" d="M-88 -205l47 334h135l139 991h-137l47 334h492l-234 -1659h-489z" />
<glyph unicode="^" horiz-adv-x="1243" d="M72 827l594 621h200l432 -621h-424l-165 236l-228 -236h-409z" />
<glyph unicode="_" horiz-adv-x="1138" d="M-57 -276l47 346h1030l-47 -346h-1030z" />
<glyph unicode="`" horiz-adv-x="600" d="M43 1450h463l178 -387h-387z" />
<glyph unicode="a" horiz-adv-x="1044" d="M72 375l45 319q15 106 64 185.5t121 124t153.5 65.5t173.5 21q90 0 197 -31t200 -80l-135 -979h-254l-39 78q-62 -48 -130 -68q-49 -14 -94 -13q-18 0 -36 2q-61 8 -115 39.5t-91 79.5q-38 49 -54 116q-10 42 -10 86q0 27 4 55zM412 375v-7q0 -38 29 -58q31 -22 72 -21h3 q44 1 80 20l68 482q-32 15 -64 15t-66 -15q-68 -30 -77 -95z" />
<glyph unicode="b" horiz-adv-x="1026" d="M29 61l194 1389h348l-55 -399q60 18 122 18t117.5 -16t103.5 -49t80 -78q31 -44 45 -104q7 -33 8 -69q0 -29 -5 -59l-49 -358q-19 -97 -64 -169t-104.5 -112.5t-134.5 -61.5t-153 -23h-17q-69 0 -143 11q-82 12 -154 32.5t-139 47.5zM403 250q25 -10 55 -10q2 0 3 -1 q27 -1 55 7t50.5 28.5t27.5 51.5l53 383q1 39 -31 59q-30 19 -67 19h-3q-38 -1 -71 -15z" />
<glyph unicode="c" horiz-adv-x="913" d="M53 375l43 309q13 94 61.5 170t117.5 122.5t149 71.5t162 25q46 0 89 -8t87.5 -29t79.5 -53t61 -83.5t35 -117.5l-303 -90q-3 46 -33 70q-28 22 -59 22h-5q-34 -2 -65 -27t-37 -65l-45 -323q-1 -8 -1 -16q0 -46 42 -66q21 -9 43 -9q30 0 62 17q43 24 65 72l289 -68 q-39 -85 -96.5 -148.5t-120.5 -97t-122.5 -49.5t-117.5 -16q-83 0 -156 24.5t-129 71.5q-57 46 -83 122q-18 51 -17 109q0 29 4 60z" />
<glyph unicode="d" horiz-adv-x="1034" d="M68 336l49 358q8 68 38.5 128t75.5 104.5t102 77.5t117.5 49t122.5 16t117 -18l55 399h349l-195 -1389q-66 -24 -133.5 -42t-143.5 -32q-74 -14 -144 -16h-28q-55 0 -108 6q-66 8 -118.5 34t-90.5 67q-37 41 -55 107q-12 45 -13 100q0 24 3 51zM408 326q-1 -6 -1 -12 q0 -24 13 -40q16 -20 42 -28q25 -7 54 -6h4q30 0 58 10l71 522q-27 14 -65 15h-4q-36 -1 -70 -19q-36 -20 -49 -59z" />
<glyph unicode="e" horiz-adv-x="1021" d="M72 373l43 303q13 96 60.5 173.5t116 125.5t148.5 73t164 25t157 -23.5t129 -69.5q54 -46 80 -120q17 -49 17 -107q0 -30 -4 -61q-14 -106 -86 -177.5t-178 -106.5l-35 -11q-64 -16 -133 -16.5t-143 16.5q-2 -12 -2 -23q0 -40 24 -68q30 -34 78 -41q14 -2 29 -2 q33 0 69 10q52 14 82 46l160 -149q-183 -186 -399 -186q-82 0 -154.5 25t-127.5 72t-81 123q-18 51 -18 110q0 28 4 59zM436 602q43 -12 99 -12q80 0 115 57q16 26 16 52q0 20 -10 40q-25 47 -93 47q-40 0 -73 -20t-39 -53z" />
<glyph unicode="f" horiz-adv-x="579" d="M-82 -111q32 23 53 45t29.5 44t11 31t4.5 30l142 1003q16 118 69.5 206t132 137.5t175.5 68.5q52 9 107 9q47 0 97 -7l-43 -313q-29 7 -55 7q-44 0 -80 -20q-57 -33 -65 -88l-13 -88h176l-47 -336h-176l-82 -579q-28 -215 -301 -371z" />
<glyph unicode="g" horiz-adv-x="1013" d="M49 -252q32 33 85.5 97.5t84.5 97.5q43 -30 96 -45q42 -12 82 -12q10 0 21 1q49 4 86 36.5t45 90.5q-68 -24 -162.5 -24t-153.5 24q-180 80 -180 264q0 32 6 68q38 262 52 367q14 94 57 165.5t104.5 113.5t137.5 66t157 28h42q60 0 121 -7q81 -10 152.5 -31.5 t129.5 -50.5q-22 -151 -65 -459t-64 -460q-15 -102 -55.5 -185t-98 -136.5t-127 -89t-144.5 -44.5q-38 -5 -75 -5t-74 5q-73 9 -140.5 41.5t-119.5 83.5zM395 346q-1 -9 -1 -17q0 -36 24 -56q29 -24 71 -24q2 0 5 1q44 1 81 22l76 537q-19 14 -51 17q-8 1 -17 1l-47 -7 q-32 -8 -57 -33t-30 -62z" />
<glyph unicode="h" horiz-adv-x="1073" d="M41 0l203 1450h344l-58 -401q54 14 108 14h18q62 -3 119 -17.5t102.5 -48t76.5 -78.5q32 -45 44 -109q7 -34 6 -72q0 -33 -5 -68l-92 -670h-344l94 672q1 7 1 14q0 34 -24 52q-28 22 -68 21h-4q-42 -1 -75 -20l-102 -739h-344z" />
<glyph unicode="i" horiz-adv-x="532" d="M45 0h344l148 1061h-344zM199 1309q16 112 113 164q54 28 109 29q30 0 61 -9q84 -24 108 -99q8 -25 8 -53q0 -15 -2 -32q-15 -109 -110 -161q-56 -31 -114 -31q-28 0 -56 7q-85 22 -111 98q-8 25 -8 55q0 15 2 32z" />
<glyph unicode="j" horiz-adv-x="571" d="M-143 -377q60 -17 117 -17q40 0 79 8q94 21 168.5 73.5t124.5 137.5t64 185l143 1022h-346l-144 -1018q-7 -51 -51 -80q-26 -17 -63 -17q-24 0 -51 7zM215 1274q16 112 113 164q52 28 107 28q30 0 62 -9q84 -23 109 -99q8 -25 8 -54q0 -15 -2 -30q-15 -109 -111 -161 q-55 -31 -113 -31q-28 0 -56 7q-86 22 -111 98q-8 25 -8 55q0 15 2 32z" />
<glyph unicode="k" horiz-adv-x="997" d="M45 0l203 1450h330l-101 -719l273 330h389l-457 -514l307 -547h-385l-182 340l-47 -340h-330z" />
<glyph unicode="l" horiz-adv-x="589" d="M86 397l147 1053h347l-148 -1049q-1 -8 -1 -15q-1 -40 31 -64q23 -17 61 -18q23 0 52 7l-43 -301q-66 -17 -124 -17q-40 0 -76 8q-88 20 -148 73.5t-86 137.5q-17 55 -17 117q0 33 5 68z" />
<glyph unicode="m" horiz-adv-x="1538" d="M53 0l137 983q86 59 212 89q75 18 150 18q52 0 105 -8q130 -20 199 -101q56 51 128 77q70 25 140 25h5q72 -1 140 -27.5t117 -73t74 -118.5q17 -49 17 -103q0 -26 -4 -54l-99 -707h-344l98 711q1 6 1 12q1 32 -29 45q-17 8 -36 8q-18 0 -38 -8q-40 -16 -47 -55l-98 -713 h-334l100 717q5 31 -23 47q-23 14 -54 13h-12q-38 -3 -60 -23l-105 -754h-340z" />
<glyph unicode="n" horiz-adv-x="1058" d="M41 0l141 1008q84 38 180.5 60t193.5 26q17 1 33 1q79 1 151 -17q86 -22 150 -66t95 -126q21 -55 21 -123q0 -33 -5 -69l-96 -694h-344l96 692q5 36 -9 60t-39.5 32t-55 6.5t-57.5 -12.5l-109 -778h-346z" />
<glyph unicode="o" horiz-adv-x="1021" d="M66 356l47 334q13 95 61 171t116.5 122.5t148.5 71.5t163 26q83 -1 155 -26t127.5 -71.5t81.5 -122.5q17 -51 17 -110q0 -30 -4 -61l-47 -334q-26 -185 -186 -289q-132 -85 -296 -85h-15q-170 4 -274 95q-99 87 -99 222q0 28 4 57zM406 352q-1 -5 -1 -10q0 -28 21 -48 q24 -22 59 -22t66.5 22.5t38.5 57.5l47 344q1 6 1 12q0 26 -22 44q-27 22 -61 22q-33 0 -64.5 -21.5t-37.5 -56.5z" />
<glyph unicode="p" horiz-adv-x="1028" d="M-33 -381l193 1376q75 27 153 47.5t164 32.5q79 11 151 11h12q76 -1 145 -22.5t117.5 -61.5t72.5 -112q18 -54 18 -122q0 -23 -2 -47l-51 -359q-8 -68 -38.5 -128t-75 -104.5t-101.5 -77t-117 -48.5t-122 -16t-117 18l-56 -387h-346zM408 285q28 -14 66 -15h3q36 0 71 18 q36 20 48 60l55 383q1 6 1 12q0 23 -13 39q-16 21 -43 28q-24 8 -53 8h-3q-31 -1 -59 -11z" />
<glyph unicode="q" horiz-adv-x="1038" d="M63 362l52 359q19 97 63.5 169t103.5 112t134.5 61.5t152.5 22.5h12q71 0 148 -11q83 -12 155 -32.5t140 -47.5l-195 -1376h-348l56 387q-60 -18 -122.5 -18t-118.5 16t-103.5 48.5t-80.5 77t-46 104.5q-8 33 -8 69q0 28 5 59zM403 348q0 -40 31 -60q30 -18 67 -18h3 q39 1 71 15l74 522q-24 10 -55 11h-3q-29 0 -55 -8q-29 -7 -50.5 -27.5t-26.5 -51.5z" />
<glyph unicode="r" horiz-adv-x="700" d="M35 0l92 670q18 124 91 224t171 146h2q84 43 221 43q77 0 174 -26l-41 -289q-35 12 -79 14q-6 0 -11 1q-38 0 -74 -9q-41 -10 -71.5 -38t-36.5 -70l-92 -666h-346z" />
<glyph unicode="s" horiz-adv-x="813" d="M-2 152l180 204q48 -42 108 -62q48 -16 92 -16q11 0 21 1q35 3 48 27t-2.5 47.5t-51.5 25.5q-171 31 -247 129q-61 79 -62 176q0 24 4 49q9 64 42.5 124t87 107.5t130 77t164.5 31.5q201 0 348 -137l-198 -209q-78 40 -119 45q-9 2 -54 2q-24 0 -41 -23t1 -46 q11 -13 35 -24.5t42 -14.5q273 -71 273 -273q0 -24 -4 -49q-12 -88 -54.5 -158.5t-104.5 -114t-135 -66.5t-151 -23q-233 0 -352 170z" />
<glyph unicode="t" horiz-adv-x="624" d="M72 375l151 1075h344l-55 -389h174l-45 -330h-174l-51 -354q-1 -7 -1 -14q1 -44 23 -68q24 -25 63 -25h5q44 2 100 17l-39 -275q-86 -32 -167 -38q-17 -1 -33 -1q-62 -1 -115 17q-67 22 -113 70q-46 46 -65 128q-10 43 -10 93q0 44 8 94z" />
<glyph unicode="u" horiz-adv-x="1062" d="M96 367l97 694h344l-97 -692q-5 -36 9 -60t40 -32t55.5 -6.5t57.5 12.5l109 778h346l-142 -1008q-72 -32 -153.5 -54t-165.5 -29q-42 -4 -83 -4t-81 4q-80 7 -146.5 35.5t-114 74t-68.5 119.5q-13 44 -13 96q0 34 6 72z" />
<glyph unicode="v" horiz-adv-x="987" d="M68 1061h366l62 -512l-2 -209h12l49 211l203 510h370l-526 -1061h-307z" />
<glyph unicode="w" horiz-adv-x="1505" d="M90 1061h348l47 -461l-2 -221h11l217 682h288l29 -682h10l60 221l174 461h350l-457 -1061h-354l-35 260l-6 148h-14l-47 -148l-105 -260h-354z" />
<glyph unicode="x" horiz-adv-x="985" d="M-96 0l397 530l-252 531h375l84 -187l20 -120h11l53 125l131 182h385l-406 -526q39 -68 82.5 -154t110 -225.5t74.5 -155.5h-394l-92 195l-18 94h-8l-45 -96l-140 -193h-368z" />
<glyph unicode="y" horiz-adv-x="1034" d="M63 -256q28 30 78.5 90.5t83.5 95.5q57 -41 129 -48q13 -2 26 -2q56 0 104 28q58 34 67 106q-68 -24 -156 -24t-147 24q-180 80 -180 264q0 32 6 68l100 715h336l-100 -713q-1 -9 -1 -18q0 -35 23 -53q25 -20 60 -20h10q41 3 78 24l108 780h346l-137 -983 q-17 -118 -69.5 -210.5t-124 -147t-159.5 -82.5q-75 -24 -149 -24h-24q-86 5 -167 38t-141 92z" />
<glyph unicode="z" horiz-adv-x="886" d="M-29 106l461 648h-338l43 307h715l86 -96l-467 -658h360l-43 -307h-739z" />
<glyph unicode="{" horiz-adv-x="653" d="M66 446l47 334q60 0 90 30t35 77l36 250q22 155 102 236t245 81h167l-47 -334h-120l-37 -264q-10 -69 -62 -143t-119 -99q65 -25 94.5 -94.5t18.5 -148.5l-35 -242h121l-47 -334h-184q-161 0 -212.5 79t-29.5 237l33 227q15 108 -96 108z" />
<glyph unicode="|" horiz-adv-x="497" d="M-4 -276l244 1759h346l-246 -1759h-344z" />
<glyph unicode="}" horiz-adv-x="604" d="M-76 -221l47 334h103l37 258q6 76 65 148.5t127 96.5q-61 30 -101 99.5t-24 140.5l37 260h-104l47 334h141q102 0 163.5 -22.5t85 -63.5t27 -100t-9.5 -131l-35 -246q-12 -107 99 -107l-47 -334q-112 0 -127 -108l-35 -244q-11 -78 -32 -132.5t-61 -97.5t-106.5 -64 t-161.5 -21h-135z" />
<glyph unicode="~" horiz-adv-x="954" d="M66 590q189 233 352 233q47 0 91 -23.5t72 -47.5t58.5 -38t66 5.5t78.5 81.5l187 -174q-184 -252 -367 -252q-42 0 -82.5 20t-67.5 40.5t-56 33.5t-61.5 -2.5t-70.5 -67.5z" />
<glyph unicode="&#xa1;" horiz-adv-x="569" d="M14 -377l136 973h350l-135 -973h-351zM160 852q12 86 76.5 143.5t152.5 57.5q87 0 137.5 -58t38.5 -143q-12 -89 -78.5 -147t-154.5 -58q-89 0 -136.5 57.5t-35.5 147.5z" />
<glyph unicode="&#xa2;" horiz-adv-x="948" d="M82 375l43 309q22 149 121 244.5t239 128.5l21 145h262l-20 -149q189 -61 219 -271l-303 -90q-3 46 -32.5 69.5t-64 22t-65.5 -26.5t-37 -65l-45 -323q-8 -59 41 -82q49 -22 105 8q43 24 65 72l289 -68q-104 -224 -320 -291l-20 -149h-263l21 143q-131 33 -204 128.5 t-52 244.5z" />
<glyph unicode="&#xa3;" horiz-adv-x="976" d="M-18 0l45 324h159l31 229h-160l45 313h160l21 154q9 62 30.5 120.5t61.5 116.5t94.5 101t135.5 69.5t179 26.5q87 0 176.5 -42t151.5 -128l-231 -194q-34 45 -90 49.5t-102.5 -31.5t-55.5 -98l-21 -144h344l-45 -313h-344l-30 -229h421l-45 -324h-931z" />
<glyph unicode="&#xa4;" horiz-adv-x="1179" d="M27 350l106 101q-34 102 -16 227q17 114 82 227l-86 96l268 250l94 -108q109 47 227 47q114 0 218 -51l124 110l197 -248l-115 -98q39 -106 21 -225q-17 -121 -82 -229l86 -95l-266 -248l-94 109q-101 -49 -232 -49q-121 0 -215 47l-125 -104zM428 676q-12 -84 39 -143.5 t135 -59.5q82 0 149.5 59.5t79.5 143.5q12 87 -39 147t-133 60q-84 0 -151.5 -60t-79.5 -147z" />
<glyph unicode="&#xa5;" horiz-adv-x="1175" d="M45 1450h426l184 -553l340 553h430l-512 -711h146l-78 -221h-195l-8 -63h242l-78 -222h-194l-33 -233h-367l33 233h-223l75 222h179l8 63h-223l75 221h82z" />
<glyph unicode="&#xa6;" horiz-adv-x="483" d="M-2 -225l106 772h349l-109 -772h-346zM117 641l100 711h348l-100 -711h-348z" />
<glyph unicode="&#xa7;" horiz-adv-x="962" d="M27 76l262 160q17 -32 46 -53t58.5 -26.5t57 -1.5t46 20.5t21.5 39.5q4 25 -19.5 48.5t-62.5 45.5t-87 46t-95 55t-84.5 67.5t-56.5 88.5t-11 112q19 143 134 217q-55 76 -41 178q17 115 88.5 203.5t168 132t201.5 43.5q100 0 177.5 -50.5t138.5 -166.5l-262 -145 q-20 44 -57.5 53t-68.5 -12.5t-36 -57.5q-4 -28 18.5 -51t60 -41.5t83.5 -38t90.5 -46.5t80 -61.5t53 -88.5t7.5 -121q-8 -59 -41 -113t-86 -92q64 -97 47 -217q-13 -98 -80.5 -183.5t-170 -136.5t-212.5 -51q-113 0 -212 63t-156 181zM398 688q5 -40 59 -63l153 -78 q29 27 32.5 52.5t-19 51.5t-65 52t-109.5 55q-56 -30 -51 -70z" />
<glyph unicode="&#xa8;" horiz-adv-x="804" d="M145 1288q10 75 68.5 126.5t132.5 51.5t118 -51.5t34 -126.5q-11 -72 -69.5 -123t-131.5 -51t-118 51t-34 123zM598 1288q11 76 68 127t133 51q75 0 119.5 -51.5t33.5 -126.5q-11 -72 -69 -123t-133 -51q-76 0 -119.5 50.5t-32.5 123.5z" />
<glyph unicode="&#xa9;" horiz-adv-x="1583" d="M139 719q28 198 150.5 367.5t306.5 268.5t383 99q148 0 276 -58.5t212.5 -157.5t124 -235t18.5 -284q-28 -199 -151 -368.5t-306 -268t-381 -98.5q-200 0 -355.5 98.5t-230.5 267.5t-47 369zM350 719q-20 -143 33 -264t164.5 -191.5t255.5 -70.5q142 0 272 70.5 t217 191.5t107 264q20 144 -33 264.5t-163.5 190t-252.5 69.5q-220 0 -394.5 -152.5t-205.5 -371.5zM467 600q-10 -67 4 -123.5t46.5 -96t79 -67t100.5 -40.5t114 -13q61 0 122 14.5t120 44t108 81.5t78 120l-186 74q-17 -38 -46 -66.5t-63.5 -42.5t-72 -18.5t-71.5 3.5 t-61.5 24t-43.5 43t-15 61l31 231q13 47 53 81t90.5 44.5t100 5t87 -39t45.5 -86.5l203 73q-19 132 -119 196t-231 64q-60 0 -118 -13t-112.5 -40.5t-98 -67t-73.5 -96t-40 -123.5z" />
<glyph unicode="&#xaa;" horiz-adv-x="700" d="M145 913q10 69 44.5 121t81 79t101 39.5t105 9.5t92.5 -17q5 53 -40 74t-108 8t-110 -51l-100 106q48 60 114.5 98.5t134 51t133 1.5t113.5 -44t73 -92.5t14 -135.5l-68 -477q-72 -19 -140.5 -30t-140 -13.5t-128.5 12t-100.5 44t-62.5 84.5t-8 132zM367 907 q-6 -40 18 -62t58 -22t67 6l20 136q-30 11 -64 11.5t-63.5 -18.5t-35.5 -51z" />
<glyph unicode="&#xab;" horiz-adv-x="1200" d="M49 588l395 485l273 -176l-254 -309l168 -314l-326 -176zM578 588l395 485l272 -176l-256 -313l172 -308l-325 -178z" />
<glyph unicode="&#xac;" horiz-adv-x="1161" d="M78 532l49 347h997l-88 -617h-344l39 270h-653z" />
<glyph unicode="&#xad;" horiz-adv-x="681" d="M23 330l49 350h641l-49 -350h-641z" />
<glyph unicode="&#xae;" horiz-adv-x="1599" d="M139 719q28 198 150.5 367.5t306.5 268.5t383 99q148 0 276 -58.5t212.5 -157.5t124 -235t18.5 -284q-28 -199 -151 -368.5t-306 -268t-381 -98.5q-200 0 -355.5 98.5t-230.5 267.5t-47 369zM358 719q-20 -141 33 -261.5t163.5 -190.5t252.5 -70q140 0 269.5 70 t216 190.5t106.5 261.5q15 106 -12.5 202.5t-87.5 166t-150 110.5t-195 41q-142 0 -272 -69t-217 -189t-107 -262zM524 346l105 733h332q68 0 120 -21.5t80 -57.5t41 -80.5t4.5 -92.5t-29.5 -91.5t-60.5 -80t-90.5 -55.5l139 -254h-237l-125 240h-43l-35 -240h-201zM782 750 h125q58 0 82 49q22 43 -1 78q-19 28 -60 28h-123z" />
<glyph unicode="&#xaf;" horiz-adv-x="657" d="M96 1063l49 348h668l-49 -348h-668z" />
<glyph unicode="&#xb0;" horiz-adv-x="714" d="M131 1141q20 141 132.5 238.5t252.5 97.5q139 0 224 -98t65 -238q-20 -138 -133.5 -238t-249.5 -100q-140 0 -225.5 99.5t-65.5 238.5zM367 1137q-6 -42 19 -70.5t69 -28.5t77 28.5t39 70.5q5 43 -20 74.5t-68 31.5t-77 -32t-39 -74z" />
<glyph unicode="&#xb1;" horiz-adv-x="1114" d="M47 27l49 344h924l-49 -344h-924zM147 717l50 348h282l37 270h348l-37 -270h289l-49 -348h-289l-39 -268h-348l39 268h-283z" />
<glyph unicode="&#xb2;" horiz-adv-x="731" d="M90 659l367 361q72 70 56 116q-11 33 -55 29q-60 -5 -110 -75l-166 161q139 179 342 179q148 0 227 -91.5t60 -220.5q-20 -141 -139 -231l-137 -115h243l-37 -268h-616z" />
<glyph unicode="&#xb3;" horiz-adv-x="710" d="M109 705l202 116q17 -42 64 -55t90 7t49 61q2 20 -11 37t-36 14h-105l29 205h103q30 0 45.5 29.5t1.5 58t-56 26.5q-32 -1 -62 -15.5t-48 -35.5l-137 131q77 72 136 105.5t136 37.5q69 4 129.5 -20.5t96 -69t48 -99t-13.5 -116.5t-90 -116q75 -37 96 -106.5t-6 -141 t-86 -129.5q-91 -87 -212.5 -108.5t-223.5 28.5t-139 156z" />
<glyph unicode="&#xb4;" horiz-adv-x="589" d="M63 1010l302 444h446l-377 -444h-371z" />
<glyph unicode="&#xb5;" horiz-adv-x="1044" d="M-29 -352l197 1409h350l-90 -635q-9 -68 40 -94q44 -22 90 5q46 28 54 87l90 637h353l-146 -1061l-299 2v78q-66 -79 -131.5 -77.5t-99.5 71.5l-60 -422h-348z" />
<glyph unicode="&#xb6;" horiz-adv-x="1312" d="M96 930q13 94 57.5 180.5t115 156t174 111t225.5 41.5h688l-223 -1589h-345l177 1257h-82l-176 -1257h-345l87 616q-130 18 -217 92t-119.5 176t-16.5 216z" />
<glyph unicode="&#xb7;" horiz-adv-x="561" d="M115 621q12 87 77.5 146.5t155.5 59.5q87 0 135.5 -59.5t36.5 -146.5q-12 -86 -77 -143.5t-152 -57.5q-90 0 -139 57.5t-37 143.5z" />
<glyph unicode="&#xb8;" horiz-adv-x="581" d="M-125 -291q36 68 84 150l135 -43q39 -11 61 18q20 27 1 50q-13 15 -41 18l-127 20l164 264h305l-78 -127q70 -20 100 -70.5t20.5 -109.5t-44 -118.5t-86.5 -102.5q-41 -34 -99.5 -54t-115.5 -20q-145 0 -279 125z" />
<glyph unicode="&#xb9;" horiz-adv-x="577" d="M131 1167l297 281h219l-127 -903h-274l76 536l-109 -57z" />
<glyph unicode="&#xba;" horiz-adv-x="763" d="M125 915l35 246q14 98 77 169t145.5 103.5t172.5 32.5q141 0 235 -80.5t74 -224.5l-35 -246q-14 -97 -77 -168t-146 -104t-172 -33q-141 0 -235 81t-74 224zM401 915q-5 -43 30.5 -61.5t75 -1t46.5 62.5l35 244q6 45 -29.5 64t-75.5 0.5t-47 -62.5z" />
<glyph unicode="&#xbb;" horiz-adv-x="1245" d="M59 274l260 314l-167 309l319 178l262 -487l-395 -488zM573 276l256 312q-34 61 -170 311l326 174l258 -485l-397 -490z" />
<glyph unicode="&#xbc;" horiz-adv-x="1636" d="M131 1180l84 -144l109 58l-76 -537h274l127 903h-219zM176 51l1065 1422l219 -144l-1065 -1421zM809 362l94 -184h330l-25 -178h275l24 178h74l33 240h-74l76 540h-232zM1118 410l195 192l8 -2l-31 -190h-172z" />
<glyph unicode="&#xbd;" horiz-adv-x="1687" d="M131 1180l84 -144l109 58l-76 -537h274l127 903h-219zM193 53l1064 1420l218 -144l-1067 -1421zM973 158l37 -152h596l36 260h-229l135 111q118 90 138 223q18 124 -61.5 212.5t-225.5 88.5q-202 0 -334 -172l164 -156q47 66 105 72q44 4 55 -27q16 -45 -54 -112z" />
<glyph unicode="&#xbe;" horiz-adv-x="1683" d="M68 713q39 -110 146.5 -161.5t235 -29t222.5 112.5q62 59 90 132.5t5.5 145t-101.5 109.5q67 55 94.5 119t14.5 120t-50.5 102t-101 71.5t-136.5 21.5q-80 -4 -143 -38.5t-143 -108.5l145 -135q20 21 52 36.5t65 16.5q43 2 58 -28t-1 -60.5t-47 -30.5h-108l-31 -211h110 q25 3 38 -14.5t10 -38.5q-6 -42 -51 -62.5t-94 -7t-66 56.5zM301 53l1065 1420l211 -144l-1065 -1421zM909 350l88 -178h334l-22 -172h241l23 172h72l32 231h-71l73 523h-215zM1206 395l187 187l8 -2l-29 -185h-166z" />
<glyph unicode="&#xbf;" horiz-adv-x="923" d="M-18 12q-12 -85 6 -161t59 -132t101.5 -95.5t130.5 -57t149 -11.5t155 35.5t149.5 90.5t131.5 147l-184 178q-30 -45 -77 -71t-93 -28.5t-86.5 10t-63 44.5t-16.5 74q10 74 66 123t133 56.5t162 -26.5l45 459h-308l-53 -231q-175 -25 -280.5 -141.5t-126.5 -262.5z M446 891q10 78 71 132t138 54q78 0 125 -54t37 -132q-12 -81 -73 -132.5t-140 -51.5q-78 0 -124 52t-34 132z" />
<glyph unicode="&#xc0;" horiz-adv-x="1306" d="M-72 0h394l129 291h387l55 -291h393l-315 1450h-334zM475 1839h402l155 -336h-336zM580 616l155 424h27l35 -424h-217z" />
<glyph unicode="&#xc1;" horiz-adv-x="1306" d="M-72 0l709 1450h334l315 -1450h-393l-55 291h-387l-129 -291h-394zM580 616h217l-35 424h-27zM604 1503l250 336h401l-315 -336h-336z" />
<glyph unicode="&#xc2;" horiz-adv-x="1306" d="M-72 0h394l129 291h387l55 -291h393l-315 1450h-334zM375 1501l391 359h190l293 -359h-340l-84 101l-104 -101h-346zM580 616l155 424h27l35 -424h-217z" />
<glyph unicode="&#xc3;" horiz-adv-x="1306" d="M-72 0h394l129 291h387l55 -291h393l-315 1450h-334zM481 1595q44 120 115.5 179.5t148.5 56.5q35 -1 73 -20t62 -35.5t57.5 -13t70.5 41.5l159 -100q-88 -166 -213 -207q-37 -10 -70.5 -5.5t-59 20t-51 29t-47.5 20.5t-48.5 -5t-54.5 -47zM580 616l155 424h27l35 -424 h-217z" />
<glyph unicode="&#xc4;" horiz-adv-x="1306" d="M-72 0h394l129 291h387l55 -291h393l-315 1450h-334zM459 1659q10 70 64.5 118t123.5 48q68 0 107.5 -48t29.5 -118q-9 -66 -63 -113t-121 -47q-69 0 -109.5 47t-31.5 113zM580 616l155 424h27l35 -424h-217zM877 1659q11 71 63.5 118.5t122.5 47.5q69 0 109 -48t30 -118 q-9 -66 -63 -113t-123 -47q-70 0 -109 46.5t-30 113.5z" />
<glyph unicode="&#xc5;" horiz-adv-x="1306" d="M-72 0l709 1450h39q-59 34 -88 98t-19 138q15 110 105.5 190t202.5 80q109 0 173 -83.5t50 -189.5q-10 -71 -57.5 -134t-114.5 -99h43l315 -1450h-393l-55 291h-387l-129 -291h-394zM580 616h217l-35 424h-27zM772 1683q-3 -22 12.5 -41.5t44.5 -19.5q25 0 45.5 17 t24.5 44q4 28 -11 48t-40 20q-30 0 -50.5 -19.5t-25.5 -48.5z" />
<glyph unicode="&#xc6;" horiz-adv-x="1597" d="M-145 0l841 1450h1014l-51 -360h-502l-27 -191h451l-49 -354h-451l-26 -195h501l-49 -350h-850l54 393h-222l-194 -393h-440zM627 707h147l60 368h-35z" />
<glyph unicode="&#xc7;" horiz-adv-x="1177" d="M68 477l69 494q17 119 79.5 215t153 156t197 92t217.5 32q56 0 109 -9.5t108 -33.5t100 -61t84 -95.5t62 -133.5l-315 -121q-21 52 -70 82.5t-106 33t-111.5 -12.5t-94 -53.5t-46.5 -90.5l-70 -494q-12 -84 66.5 -128t183.5 -16.5t156 122.5l299 -148q-86 -130 -202 -207 t-241 -104l-22 -39q63 -18 90 -63.5t18.5 -99t-39.5 -108t-77 -92.5q-85 -65 -193 -65q-131 0 -250 113q30 59 74 135l125 -39q28 -9 47.5 9t12 41t-43.5 28l-114 18l100 164q-178 36 -280 160.5t-76 318.5z" />
<glyph unicode="&#xc8;" horiz-adv-x="1171" d="M51 0l203 1452h1010l-50 -346h-639l-30 -217h588l-46 -326h-587l-31 -217h639l-47 -346h-1010zM434 1839h402l155 -336h-336z" />
<glyph unicode="&#xc9;" horiz-adv-x="1171" d="M51 0l203 1452h1010l-50 -346h-639l-30 -217h588l-46 -326h-587l-31 -217h639l-47 -346h-1010zM602 1503l250 336h401l-315 -336h-336z" />
<glyph unicode="&#xca;" horiz-adv-x="1171" d="M51 0l203 1452h1010l-50 -346h-639l-30 -217h588l-46 -326h-587l-31 -217h639l-47 -346h-1010zM315 1507l392 351h190l293 -351h-338l-82 99l-106 -99h-349z" />
<glyph unicode="&#xcb;" horiz-adv-x="1171" d="M51 0l203 1452h1010l-50 -346h-639l-30 -217h588l-46 -326h-587l-31 -217h639l-47 -346h-1010zM393 1686q10 75 68.5 126.5t132.5 51.5t117.5 -51.5t33.5 -126.5q-9 -72 -68 -123.5t-132 -51.5t-117 51.5t-35 123.5zM846 1686q11 76 68 127t133 51q75 0 119.5 -51.5 t33.5 -126.5q-9 -72 -68.5 -123.5t-134.5 -51.5t-117.5 51t-33.5 124z" />
<glyph unicode="&#xcc;" horiz-adv-x="589" d="M43 0l203 1450h366l-202 -1450h-367zM94 1843h402l155 -336h-336z" />
<glyph unicode="&#xcd;" horiz-adv-x="589" d="M43 0l203 1450h366l-202 -1450h-367zM221 1503l250 336h401l-315 -336h-336z" />
<glyph unicode="&#xce;" horiz-adv-x="589" d="M20 1503l377 355h183l278 -355h-323l-80 99l-101 -99h-334zM43 0l203 1450h366l-202 -1450h-367z" />
<glyph unicode="&#xcf;" horiz-adv-x="589" d="M43 0l203 1450h366l-202 -1450h-367zM57 1677q9 75 68 126.5t133 51.5q73 0 117 -51.5t35 -126.5q-11 -72 -69.5 -123t-131.5 -51t-118 51t-34 123zM510 1677q9 75 67 126.5t134 51.5q75 0 118.5 -51.5t34.5 -126.5q-11 -72 -69 -123t-133 -51q-76 0 -119.5 50.5 t-32.5 123.5z" />
<glyph unicode="&#xd0;" horiz-adv-x="1267" d="M39 563l45 314h88l80 573h586q113 0 201.5 -28t151.5 -84.5t89.5 -150t9.5 -216.5l-69 -494q-34 -239 -193.5 -358t-392.5 -119h-586l78 563h-88zM469 360h215q73 0 117 29.5t51 87.5l70 494q9 59 -27 89t-109 30h-215l-28 -213h170l-45 -314h-170z" />
<glyph unicode="&#xd1;" d="M59 0l203 1450h348l264 -619l82 -290l17 2q-10 250 -12 250l92 657h364l-203 -1450h-370l-248 571l-86 291l-16 -2q10 -280 12 -280l-80 -580h-367zM518 1595q45 125 121 188t156 60q31 -1 62.5 -15t53.5 -28.5t46 -24t52 -1t60 40.5l168 -105q-92 -171 -223 -217 q-50 -15 -86.5 -2.5t-70.5 30.5t-61.5 33t-60.5 5t-67 -54z" />
<glyph unicode="&#xd2;" d="M94 467l72 516q17 121 81.5 218t158.5 157t204.5 91.5t225.5 31.5q92 0 175.5 -19.5t155 -60.5t121 -99t72 -140t8.5 -179l-72 -516q-17 -120 -82 -217t-159 -157t-204.5 -92t-225.5 -32t-216.5 32t-179 92t-115 157t-20.5 217zM461 467q-14 -88 79 -132q86 -41 200 -20 q121 21 169 95q16 27 21 57l71 516q12 93 -81 137q-86 42 -200 20q-118 -23 -166 -97q-17 -28 -22 -60zM479 1866h402l153 -336h-336z" />
<glyph unicode="&#xd3;" d="M94 467l72 516q17 121 81.5 218t158.5 157t204.5 91.5t225.5 31.5q92 0 175.5 -19.5t155 -60.5t121 -99t72 -140t8.5 -179l-72 -516q-17 -120 -82 -217t-159 -157t-204.5 -92t-225.5 -32t-216.5 32t-179 92t-115 157t-20.5 217zM461 467q-14 -88 79 -132q86 -41 200 -20 q121 21 169 95q16 27 21 57l71 516q12 93 -81 137q-86 42 -200 20q-118 -23 -166 -97q-17 -28 -22 -60zM647 1536l250 336h401l-315 -336h-336z" />
<glyph unicode="&#xd4;" d="M94 467l72 516q17 121 81.5 218t158.5 157t204.5 91.5t225.5 31.5q92 0 175.5 -19.5t155 -60.5t121 -99t72 -140t8.5 -179l-72 -516q-17 -120 -82 -217t-159 -157t-204.5 -92t-225.5 -32t-216.5 32t-179 92t-115 157t-20.5 217zM397 1526l394 342h192l297 -342h-342 l-82 96l-108 -96h-351zM461 467q-14 -88 79 -132q86 -41 200 -20q121 21 169 95q16 27 21 57l71 516q12 93 -81 137q-86 42 -200 20q-118 -23 -166 -97q-17 -28 -22 -60z" />
<glyph unicode="&#xd5;" d="M94 467l72 516q17 121 81.5 218t158.5 157t204.5 91.5t225.5 31.5q92 0 175.5 -19.5t155 -60.5t121 -99t72 -140t8.5 -179l-72 -516q-17 -120 -82 -217t-159 -157t-204.5 -92t-225.5 -32t-216.5 32t-179 92t-115 157t-20.5 217zM461 467q-14 -88 79 -132q86 -41 200 -20 q121 21 169 95q16 27 21 57l71 516q12 93 -81 137q-86 42 -200 20q-118 -23 -166 -97q-17 -28 -22 -60zM530 1597q36 127 108.5 195.5t152.5 71.5q32 2 65 -10t56.5 -25t49 -21t53 2.5t56.5 44.5l176 -90q-80 -178 -209 -231q-39 -13 -74 -11t-63 16.5t-56 26t-52 17.5 t-51 -9t-54 -54z" />
<glyph unicode="&#xd6;" d="M94 467l72 516q17 121 81.5 218t158.5 157t204.5 91.5t225.5 31.5q92 0 175.5 -19.5t155 -60.5t121 -99t72 -140t8.5 -179l-72 -516q-17 -120 -82 -217t-159 -157t-204.5 -92t-225.5 -32t-216.5 32t-179 92t-115 157t-20.5 217zM461 467q-14 -88 79 -132q86 -41 200 -20 q121 21 169 95q16 27 21 57l71 516q12 93 -81 137q-86 42 -200 20q-118 -23 -166 -97q-17 -28 -22 -60zM463 1681q10 73 69 125t130 52q73 0 116.5 -51.5t32.5 -125.5q-11 -71 -68.5 -121.5t-130.5 -50.5q-71 0 -115 51t-34 121zM913 1681q11 74 68.5 125.5t130.5 51.5 q74 0 119 -52t35 -125q-11 -71 -70.5 -121.5t-132.5 -50.5t-117 50.5t-33 121.5z" />
<glyph unicode="&#xd7;" horiz-adv-x="1075" d="M45 350l279 246l-218 256l281 244l215 -252l287 250l207 -250l-277 -244l209 -246l-280 -245l-211 245q-39 -35 -139.5 -122t-147.5 -130z" />
<glyph unicode="&#xd8;" horiz-adv-x="1402" d="M113 469l71 512q17 121 81.5 218t158.5 157t204.5 91.5t225.5 31.5q12 0 28.5 0.5t24.5 0.5t21 -1t28 -4l84 157l332 -116l-96 -179q75 -62 102.5 -147t10.5 -209l-72 -512q-17 -120 -82.5 -217t-160 -157t-205.5 -92t-226 -32q-23 0 -51 2.5t-45 3.5q-45 -88 -88 -165 l-328 122l96 181q-145 145 -114 354zM494 563l278 545q-79 22 -145.5 -15.5t-73.5 -111.5zM709 342l30 -6q83 -6 144 28.5t65 104.5l56 403z" />
<glyph unicode="&#xd9;" horiz-adv-x="1380" d="M126 354q-7 62 3 131l135 965h371l-135 -965q-14 -100 70 -148q75 -42 173 -20q104 23 149 102q18 31 23 66l136 965h370l-135 -965q-34 -236 -228 -377q-164 -119 -381 -132q-210 -12 -363 82q-167 104 -188 296zM475 1825h402l155 -336h-336z" />
<glyph unicode="&#xda;" horiz-adv-x="1384" d="M126 354q-7 62 3 131l135 965h371l-135 -965q-14 -100 70 -148q75 -42 173 -20q104 23 149 102q18 31 23 66l136 965h370l-135 -965q-34 -236 -228 -377q-164 -119 -381 -132q-210 -12 -363 82q-167 104 -188 296zM674 1493l250 336h401l-315 -336h-336z" />
<glyph unicode="&#xdb;" horiz-adv-x="1384" d="M126 354q-7 62 3 131l135 965h371l-135 -965q-14 -100 70 -148q75 -42 173 -20q104 23 149 102q18 31 23 66l136 965h370l-135 -965q-34 -236 -228 -377q-164 -119 -381 -132q-210 -12 -363 82q-167 104 -188 296zM362 1507l426 361h209l322 -361h-371l-90 101l-115 -101 h-381z" />
<glyph unicode="&#xdc;" horiz-adv-x="1384" d="M126 354q-7 62 3 131l135 965h371l-135 -965q-14 -100 70 -148q75 -42 173 -20q104 23 149 102q18 31 23 66l136 965h370l-135 -965q-34 -236 -228 -377q-164 -119 -381 -132q-210 -12 -363 82q-167 104 -188 296zM475 1663q9 69 66 116.5t129 47.5t115 -47.5t34 -116.5 q-9 -66 -65.5 -113t-128.5 -47t-115.5 47t-34.5 113zM915 1663q9 69 64.5 116.5t130.5 47.5q73 0 116 -47.5t34 -116.5q-9 -66 -65.5 -113t-129.5 -47q-74 0 -116.5 46.5t-33.5 113.5z" />
<glyph unicode="&#xdd;" horiz-adv-x="1187" d="M57 1450h426l185 -553l340 553h430l-631 -879l-80 -571h-367l80 571zM569 1462l250 336h402l-316 -336h-336z" />
<glyph unicode="&#xde;" horiz-adv-x="1105" d="M43 2l205 1462h370l-32 -231h20q293 0 428.5 -124.5t100.5 -367.5q-12 -92 -46.5 -166.5t-86 -126t-114 -89t-137 -59t-148.5 -31t-154 -9.5l-35 -258h-371zM496 584q146 -18 229 59q61 57 54 129q-7 74 -82 108q-63 29 -158 19z" />
<glyph unicode="&#xdf;" horiz-adv-x="1163" d="M55 0l146 1038q13 104 65 188t128.5 136t166 80t182.5 28q72 0 137.5 -16t120.5 -50.5t93 -83t54.5 -118.5t4.5 -153q-6 -48 -23 -97.5t-61 -109.5t-108 -99q84 -32 130.5 -97t51.5 -140.5t-20.5 -156t-78.5 -148.5q-71 -95 -188.5 -148t-241.5 -53q-72 0 -145 18l45 324 q87 -43 166 -5t90 118q7 57 -30 90t-101 33h-92l43 311q109 -23 172 48q47 53 39 119q-8 65 -66 85q-18 6 -41 6q-55 0 -98.5 -32.5t-50.5 -90.5l-144 -1024h-346z" />
<glyph unicode="&#xe0;" horiz-adv-x="1054" d="M72 375q-10 -74 6.5 -141t53.5 -115.5t91 -80t115 -39.5t129.5 11.5t130.5 67.5l39 -78h254l133 963q-93 49 -199.5 79.5t-197.5 30.5q-73 0 -139 -12.5t-129.5 -42t-112.5 -74t-84 -112.5t-47 -154zM328 1450h356l135 -313h-297zM412 375l43 305q9 65 76.5 94.5 t130.5 -0.5l-66 -465q-36 -19 -79.5 -20t-75.5 21.5t-29 64.5z" />
<glyph unicode="&#xe1;" horiz-adv-x="1054" d="M72 375l45 319q15 106 64 185.5t121 124t153.5 65.5t173.5 21q90 0 197 -31t200 -80l-135 -979h-254l-39 78q-62 -48 -130.5 -67.5t-129.5 -11.5t-115 39.5t-91 80t-53.5 115.5t-6.5 141zM412 375q-3 -42 29 -64.5t75.5 -21.5t79.5 20l68 482q-63 30 -130.5 0t-76.5 -95z M477 1135l223 315h357l-283 -315h-297z" />
<glyph unicode="&#xe2;" horiz-adv-x="1054" d="M72 375q-10 -74 6.5 -141t53.5 -115.5t91 -80t115 -39.5t129.5 11.5t130.5 67.5l39 -78h254l133 963q-93 49 -199.5 79.5t-197.5 30.5q-73 0 -139 -12.5t-129.5 -42t-112.5 -74t-84 -112.5t-47 -154zM240 1143l348 313h170l262 -313h-301l-76 74l-94 -74h-309zM412 375 l43 305q9 65 76.5 94.5t130.5 -0.5l-66 -465q-36 -19 -79.5 -20t-75.5 21.5t-29 64.5z" />
<glyph unicode="&#xe3;" horiz-adv-x="1054" d="M72 375q-10 -74 6.5 -141t53.5 -115.5t91 -80t115 -39.5t129.5 11.5t130.5 67.5l39 -78h254l135 979q-93 49 -200 80t-197 31q-92 0 -173.5 -21t-153.5 -65.5t-121 -124t-64 -185.5zM346 1227q36 100 107 155.5t141 53.5q33 -1 67.5 -18t57 -32.5t53.5 -13.5t64 33 l137 -86q-74 -130 -195 -176q-44 -12 -76.5 -1.5t-63.5 25t-56 26.5t-54.5 4t-58.5 -44zM412 375l45 321q9 65 76.5 95t130.5 0l-68 -482q-36 -19 -79.5 -20t-75.5 21.5t-29 64.5z" />
<glyph unicode="&#xe4;" horiz-adv-x="1046" d="M72 375q-10 -74 6.5 -141t53.5 -115.5t91 -80t115 -39.5t129.5 11.5t130.5 67.5l39 -78h254l133 963q-93 49 -199.5 79.5t-197.5 30.5q-73 0 -139 -12.5t-129.5 -42t-112.5 -74t-84 -112.5t-47 -154zM301 1274q9 64 60.5 108.5t117.5 44.5t107 -44.5t32 -108.5 q-9 -63 -62.5 -108.5t-119.5 -45.5t-105 45.5t-30 108.5zM412 375l43 305q9 65 76.5 94.5t130.5 -0.5l-66 -465q-36 -19 -79.5 -20t-75.5 21.5t-29 64.5zM709 1274q9 65 59.5 109t118.5 44t109 -44.5t32 -108.5q-9 -63 -63 -108.5t-121 -45.5q-68 0 -106 45t-29 109z" />
<glyph unicode="&#xe5;" horiz-adv-x="1054" d="M72 375l43 303q13 88 48.5 157t88 114.5t114 73t134.5 40.5q-49 31 -73.5 85.5t-16.5 117.5q14 97 97 168t187 71q100 0 160.5 -73.5t46.5 -165.5q-7 -62 -49.5 -118t-103.5 -89q145 -27 276 -96l-133 -963h-254l-39 78q-62 -48 -130.5 -67.5t-129.5 -11.5t-115 39.5 t-91 80t-53.5 115.5t-6.5 141zM412 375q-3 -42 29 -64.5t75.5 -21.5t79.5 20l66 465q-63 30 -130.5 0.5t-76.5 -94.5zM598 1266q-2 -22 12.5 -39t42.5 -17q23 0 42 15.5t22 40.5q3 23 -12 40t-37 17q-28 0 -47.5 -16.5t-22.5 -40.5z" />
<glyph unicode="&#xe6;" horiz-adv-x="1529" d="M66 375l43 303q12 86 47 154t84 112.5t112.5 74t129.5 42t139 12.5q181 0 262 -88q101 88 247 88q68 0 128 -12.5t112.5 -41t87.5 -71.5t49.5 -108.5t1.5 -147.5q-35 -209 -264 -284l-35 -11q-130 -33 -282 0q-11 -75 42 -107.5t124.5 -19.5t113.5 56l166 -156 q-177 -180 -397 -180q-120 0 -219 57l-10 -47h-152l-4 78q-62 -48 -130.5 -67.5t-129.5 -11.5t-115 39.5t-91 80t-53.5 115.5t-6.5 141zM406 375q-3 -42 30.5 -64.5t78.5 -21.5t81 20l66 465q-63 30 -133.5 0.5t-79.5 -94.5zM956 606q47 -12 111 -12q77 0 112 60q29 50 6 96 q-23 47 -87 47q-40 0 -80.5 -23.5t-44.5 -56.5z" />
<glyph unicode="&#xe7;" horiz-adv-x="913" d="M53 375l43 309q13 94 61.5 170t117.5 122.5t149 71.5t162 25q46 0 89 -8t87.5 -29t79.5 -53t61 -83.5t35 -117.5l-303 -90q-3 46 -32.5 69.5t-64 22t-65.5 -26.5t-37 -65l-45 -323q-8 -59 41 -82q49 -22 105 8q43 24 65 72l289 -68q-56 -119 -141.5 -190.5t-182.5 -100.5 l-28 -47q61 -19 86 -59t15 -83.5t-43.5 -85.5t-82.5 -67q-167 -80 -373 66q61 98 68 108l110 -30q36 -9 53 16q14 21 -6 36q-12 7 -30 9l-105 14l80 117q-131 31 -205 127.5t-53 245.5z" />
<glyph unicode="&#xe8;" horiz-adv-x="1009" d="M63 373q-13 -93 13.5 -169t81.5 -123t127.5 -72t154.5 -25q217 0 400 186l-166 156q-42 -43 -112 -56t-122 19.5t-41 107.5q149 -33 277 0l35 11q235 77 264 284q13 94 -12.5 168.5t-81 120t-128.5 69t-157 23.5t-164 -25t-148.5 -73t-116.5 -125.5t-61 -173.5zM297 1450 h356l135 -313h-296zM428 606l14 107q6 33 39.5 53t73.5 20q65 0 84 -52q17 -48 -16 -94q-34 -45 -97 -46q-52 0 -98 12z" />
<glyph unicode="&#xe9;" horiz-adv-x="1009" d="M72 373l43 303q13 96 60.5 173.5t116 125.5t148.5 73t164 25t157 -23.5t128.5 -69t81 -120t12.5 -168.5q-14 -106 -86 -177.5t-178 -106.5l-35 -11q-128 -33 -276 0q-8 -57 22.5 -91.5t77.5 -40.5t98.5 8t81.5 46l160 -149q-183 -186 -399 -186q-82 0 -154.5 25 t-127.5 72t-81.5 123t-13.5 169zM422 1137l221 313h356l-280 -313h-297zM436 602q43 -12 99 -12q80 0 115 57q29 47 6 92q-25 47 -93 47q-40 0 -73 -20t-39 -53z" />
<glyph unicode="&#xea;" horiz-adv-x="1009" d="M72 373q-13 -93 13.5 -169t81.5 -123t127.5 -72t154.5 -25q216 0 399 186l-160 149q-30 -32 -81.5 -46t-98.5 -8t-77.5 40.5t-22.5 91.5q148 -33 276 0l35 11q106 35 178 106.5t86 177.5q13 94 -12.5 168.5t-81 120t-128.5 69t-157 23.5t-164 -25t-148.5 -73t-116 -125.5 t-60.5 -173.5zM213 1126l348 314h170l262 -314h-301l-76 74l-94 -74h-309zM436 602l15 111q6 33 39 53t73 20q73 0 96 -53q20 -47 -14 -93q-36 -50 -110 -50q-55 0 -99 12z" />
<glyph unicode="&#xeb;" horiz-adv-x="1009" d="M63 373q-13 -93 13.5 -169t81.5 -123t127.5 -72t154.5 -25q217 0 400 186l-166 156q-42 -43 -112 -56t-122 19.5t-41 107.5q149 -33 277 0l35 11q235 77 264 284q13 94 -12.5 168.5t-81 120t-128.5 69t-157 23.5t-164 -25t-148.5 -73t-116.5 -125.5t-61 -173.5zM276 1270 q7 62 58.5 104.5t116.5 42.5t103 -42t30 -105q-9 -60 -59.5 -103t-114.5 -43t-103.5 43t-30.5 103zM428 606l14 107q6 33 39.5 53t73.5 20q65 0 84 -52q17 -48 -16 -94q-34 -45 -97 -46q-52 0 -98 12zM670 1270q8 63 57.5 105t116.5 42q64 0 102.5 -42t30.5 -105 q-9 -60 -59.5 -103t-114.5 -43q-67 0 -104.5 42.5t-28.5 103.5z" />
<glyph unicode="&#xec;" horiz-adv-x="485" d="M27 0l147 1059h352l-147 -1059h-352zM43 1395h354l123 -273h-291z" />
<glyph unicode="&#xed;" horiz-adv-x="485" d="M27 0l147 1059h352l-147 -1059h-352zM190 1133l199 272h354l-262 -272h-291z" />
<glyph unicode="&#xee;" horiz-adv-x="485" d="M-49 1104l352 346h170l254 -346h-301l-72 96l-96 -96h-307zM27 0l147 1059h352l-147 -1059h-352z" />
<glyph unicode="&#xef;" horiz-adv-x="485" d="M6 1268q11 66 65.5 111.5t123.5 45.5q71 0 113 -45.5t32 -111.5q-7 -64 -62 -109t-126 -45q-69 0 -110.5 44.5t-35.5 109.5zM27 0l147 1059h352l-147 -1059h-352zM403 1268q11 67 64.5 112t126.5 45q71 0 113 -45.5t32 -111.5q-7 -64 -62 -109t-126 -45 q-73 0 -114.5 44.5t-33.5 109.5z" />
<glyph unicode="&#xf0;" horiz-adv-x="1034" d="M88 340l53 375q27 236 267 332q65 24 149 24t145 -24q14 64 -16 106l-29 -51l-161 49l28 53q-68 -6 -127 -41l-96 164q159 125 354 125l58 109l159 -64l-41 -78q114 -47 172.5 -158t34.5 -278l-131 -928q-66 -29 -143.5 -50.5t-161.5 -31t-163.5 -6.5t-149 27.5t-119 66 t-72.5 113.5t-10 166zM422 332q-5 -37 11.5 -61.5t43.5 -32t58 -4t55 17.5l74 528q-31 21 -71.5 24t-75.5 -20t-42 -71z" />
<glyph unicode="&#xf1;" horiz-adv-x="1058" d="M41 0h346l109 778q28 11 57.5 12.5t55 -6.5t39.5 -32t9 -60l-96 -692h344l96 694q15 110 -16 191.5t-95 126t-150.5 66t-183.5 17t-193.5 -26.5t-180.5 -60zM330 1194q35 109 97.5 165t131.5 56q31 1 65.5 -15t56 -29.5t52 -9t62.5 39.5l147 -80q-70 -146 -182 -195 q-43 -15 -74.5 -5.5t-61 23.5t-54 25.5t-52.5 2t-55 -47.5z" />
<glyph unicode="&#xf2;" horiz-adv-x="1021" d="M66 356q-25 -183 105 -288q110 -87 281 -86q175 1 309 95q146 104 171 279l47 334q13 95 -13 171t-81.5 122.5t-127.5 71.5t-155 26q-83 -1 -163 -26t-148.5 -71.5t-116.5 -122.5t-61 -171zM299 1397h354l123 -273h-291zM406 352l47 344q6 34 39 56t67 22t59 -21.5 t19 -56.5l-47 -344q-7 -35 -38.5 -57.5t-66.5 -22.5t-59 22.5t-20 57.5z" />
<glyph unicode="&#xf3;" horiz-adv-x="1021" d="M66 356l47 334q13 95 61 171t116.5 122.5t148.5 71.5t163 26q83 -1 155 -26t127.5 -71.5t81.5 -122.5t13 -171l-47 -334q-26 -185 -186 -289q-138 -89 -311 -85q-170 4 -274 95q-119 104 -95 279zM406 352q-4 -35 20 -57.5t59 -22.5t66.5 22.5t38.5 57.5l47 344 q6 35 -19 56.5t-59 21.5t-67 -22t-39 -56zM434 1130l199 273h354l-262 -273h-291z" />
<glyph unicode="&#xf4;" horiz-adv-x="1021" d="M66 356q-25 -183 105 -288q110 -87 281 -86q175 1 309 95q146 104 171 279l47 334q13 95 -13 171t-81.5 122.5t-127.5 71.5t-155 26q-83 -1 -163 -26t-148.5 -71.5t-116.5 -122.5t-61 -171zM221 1108l340 309h164l254 -309h-293l-74 86l-90 -86h-301zM406 352l47 344 q6 35 37.5 56.5t64.5 21.5q34 0 61 -22t21 -56l-47 -344q-7 -35 -38.5 -57.5t-66.5 -22.5t-59 22.5t-20 57.5z" />
<glyph unicode="&#xf5;" horiz-adv-x="1021" d="M66 356q-25 -183 105 -288q110 -87 281 -86q175 1 309 95q146 104 171 279l47 334q13 95 -13 171t-81.5 122.5t-127.5 71.5t-155 26q-83 -1 -163 -26t-148.5 -71.5t-116.5 -122.5t-61 -171zM297 1178q35 114 100.5 172.5t137.5 58.5q34 1 71.5 -14t60.5 -28t55.5 -7.5 t65.5 41.5l156 -84q-66 -146 -190 -199q-45 -16 -78 -7t-65.5 22.5t-58.5 24.5t-55.5 0t-58.5 -52zM406 352l47 344q6 34 39 56t67 22t59 -21.5t19 -56.5l-47 -344q-7 -35 -38.5 -57.5t-66.5 -22.5t-59 22.5t-20 57.5z" />
<glyph unicode="&#xf6;" horiz-adv-x="1021" d="M66 356q-25 -183 105 -288q110 -87 281 -86q175 1 309 95q146 104 171 279l47 334q13 95 -13 171t-81.5 122.5t-127.5 71.5t-155 26q-83 -1 -163 -26t-148.5 -71.5t-116.5 -122.5t-61 -171zM262 1239q7 64 59 109t117 45q66 0 105.5 -44.5t31.5 -109.5 q-9 -62 -61.5 -105.5t-118.5 -43.5q-64 0 -103 43.5t-30 105.5zM406 352l47 344q6 34 39 56t67 22t59 -21.5t19 -56.5l-47 -344q-7 -35 -38.5 -57.5t-66.5 -22.5t-59 22.5t-20 57.5zM666 1239q8 65 58.5 109.5t117.5 44.5t107 -44.5t32 -109.5q-9 -62 -62 -105.5t-120 -43.5 t-104.5 43.5t-28.5 105.5z" />
<glyph unicode="&#xf7;" horiz-adv-x="1093" d="M80 455l49 352h344q-78 65 -63 172q12 87 81 147t154 60q87 0 140.5 -60t41.5 -147q-7 -51 -38 -96.5t-76 -75.5h346l-49 -352h-342q38 -28 56 -73.5t11 -98.5q-12 -87 -81 -148t-154 -61q-87 0 -141 61t-42 148q14 110 117 172h-354z" />
<glyph unicode="&#xf8;" horiz-adv-x="1017" d="M70 356l47 334q13 95 61 171t116.5 122.5t148.5 71.5t163 26q48 0 84 -8l49 96l195 -71l-53 -107q127 -111 102 -301l-47 -334q-14 -102 -71.5 -181t-138.5 -122.5t-173.5 -60t-181.5 -2.5l-49 -96l-191 71l49 98q-136 101 -110 293zM408 504l131 268q-35 5 -67 -18 t-38 -62zM504 256q87 -3 104 80l25 176z" />
<glyph unicode="&#xf9;" horiz-adv-x="1036" d="M84 367q-14 -94 7 -168t68.5 -119.5t114.5 -74t146.5 -35.5t163.5 0t165.5 29t153.5 54l141 1008h-346l-108 -778q-28 -11 -57.5 -12.5t-55.5 6.5t-40 32t-9 60l96 692h-344zM305 1380h354l123 -272h-290z" />
<glyph unicode="&#xfa;" horiz-adv-x="1036" d="M84 367l96 694h344l-96 -692q-5 -36 9 -60t40 -32t55.5 -6.5t57.5 12.5l108 778h346l-141 -1008q-72 -32 -153.5 -54t-165.5 -29t-163.5 0t-146.5 35.5t-114.5 74t-68.5 119.5t-7 168zM461 1108l196 272h355l-260 -272h-291z" />
<glyph unicode="&#xfb;" horiz-adv-x="1036" d="M84 367q-14 -94 7 -168t68.5 -119.5t114.5 -74t146.5 -35.5t163.5 0t165.5 29t153.5 54l141 1008h-346l-108 -778q-28 -11 -57.5 -12.5t-55.5 6.5t-40 32t-9 60l96 692h-344zM248 1118l330 307h159l244 -307h-285l-69 70l-86 -70h-293z" />
<glyph unicode="&#xfc;" horiz-adv-x="1036" d="M84 367q-14 -94 7 -168t68.5 -119.5t114.5 -74t146.5 -35.5t163.5 0t165.5 29t153.5 54l141 1008h-346l-108 -778q-28 -11 -57.5 -12.5t-55.5 6.5t-40 32t-9 60l96 692h-344zM252 1274q9 69 67 116.5t130 47.5t116 -47.5t35 -116.5q-9 -66 -67 -113t-130 -47t-116 47 t-35 113zM698 1274q9 70 65 117t132 47q73 0 117 -47.5t35 -116.5q-9 -66 -66.5 -113t-130.5 -47q-75 0 -118 46.5t-34 113.5z" />
<glyph unicode="&#xfd;" horiz-adv-x="1034" d="M63 -252q32 33 85.5 97.5t84.5 97.5q57 -40 125.5 -48t122 23t62.5 96q-68 -24 -152 -24t-143 24q-211 94 -174 332l100 715h336l-100 -713q-7 -48 21.5 -71t70 -20t78.5 24l108 780h346l-137 -983q-15 -102 -55.5 -185t-98 -136.5t-127 -89t-145 -44.5t-148.5 0 t-140.5 41.5t-119.5 83.5zM459 1114l198 272h355l-262 -272h-291z" />
<glyph unicode="&#xfe;" horiz-adv-x="1044" d="M-4 -324l248 1774h344l-56 -397q66 16 105 16q83 0 153.5 -24t123.5 -70t78 -122.5t12 -172.5l-46 -324q-11 -85 -58.5 -157.5t-115 -118.5t-148 -72t-161.5 -26q-34 0 -92 14l-45 -320h-342zM424 279q22 -13 50.5 -16t56 3.5t50.5 30t31 59.5l47 334q2 38 -13.5 62 t-41.5 31t-54.5 4.5t-55.5 -13.5z" />
<glyph unicode="&#xff;" horiz-adv-x="1034" d="M63 -252q32 33 85.5 97.5t84.5 97.5q57 -40 125.5 -48t122 23t62.5 96q-68 -24 -152 -24t-143 24q-211 94 -174 332l100 715h336l-100 -713q-7 -48 21.5 -71t70 -20t78.5 24l108 780h346l-137 -983q-15 -102 -55.5 -185t-98 -136.5t-127 -89t-145 -44.5t-148.5 0 t-140.5 41.5t-119.5 83.5zM221 1280q11 71 69.5 120.5t131.5 49.5q75 0 119.5 -49.5t33.5 -120.5q-9 -69 -67 -117.5t-133 -48.5q-73 0 -118 48.5t-36 117.5zM676 1280q11 71 68 120.5t133 49.5t121 -49.5t34 -120.5q-9 -69 -68 -117.5t-135 -48.5t-119 48t-34 118z" />
<glyph unicode="&#x152;" horiz-adv-x="1724" d="M111 430l79 567q20 141 101 251.5t188.5 164t233 51.5t229.5 -71l8 55h862l-49 -350h-528l-31 -209h475l-45 -334h-475l-31 -211h529l-47 -344h-862l8 72q-77 -53 -160.5 -74.5t-158 -12t-141 46t-111.5 93.5t-65.5 136.5t-8.5 168.5zM481 444q-5 -37 4.5 -64t27.5 -42 t49.5 -23.5t60.5 -11t69 -2.5q61 0 103 45q17 122 52.5 376t53.5 376q-38 35 -95.5 43t-109 -7.5t-91 -53t-46.5 -85.5q-13 -92 -39 -275.5t-39 -275.5z" />
<glyph unicode="&#x153;" horiz-adv-x="1533" d="M66 356l47 334q13 95 61 171t116.5 122.5t148.5 71.5t163 26q80 -2 140 -26.5t108 -87.5q53 48 118.5 76.5t130.5 33.5t129.5 -6.5t118 -44.5t92 -79t56 -112.5t6.5 -142.5q-14 -107 -85 -178t-177 -106l-35 -11q-128 -33 -276 0q-11 -75 40.5 -107.5t121.5 -19.5t112 56 l166 -156q-183 -186 -399 -186q-44 0 -69.5 2t-61 11t-64 30.5t-53.5 56.5q-110 -102 -279 -102q-82 0 -154.5 24t-127 69.5t-81 118t-13.5 162.5zM406 352q-4 -35 20 -57.5t59 -22.5t66.5 22.5t38.5 57.5l47 342q6 36 -21 58t-61 22q-33 0 -64.5 -21.5t-37.5 -56.5z M956 606q47 -12 99 -12q73 0 104 58q27 49 3 93q-23 41 -79 41q-40 0 -73 -20t-39 -53z" />
<glyph unicode="&#x178;" horiz-adv-x="1187" d="M57 1450h426l185 -553l340 553h430l-631 -879l-80 -571h-367l80 571zM336 1688q10 76 72 131t137 55t121 -55t36 -131q-10 -75 -71.5 -128t-136.5 -53t-121.5 53t-36.5 128zM829 1688q11 77 71.5 131.5t137.5 54.5q79 0 125 -54.5t35 -131.5q-11 -76 -71.5 -128.5 t-139.5 -52.5q-78 0 -123.5 53t-34.5 128z" />
<glyph unicode="&#x2c6;" horiz-adv-x="962" d="M72 1018l465 440h223l338 -440h-398l-94 123l-127 -123h-407z" />
<glyph unicode="&#x2dc;" horiz-adv-x="675" d="M129 1229q45 125 121 188t156 60q31 -1 62.5 -15t53.5 -28.5t46 -24.5t52 -1.5t60 40.5l168 -105q-91 -170 -223 -217q-39 -10 -74 -5t-61.5 21.5t-53.5 30t-50 21.5t-50.5 -5t-56.5 -50z" />
<glyph unicode="&#x2000;" horiz-adv-x="978" />
<glyph unicode="&#x2001;" horiz-adv-x="1956" />
<glyph unicode="&#x2002;" horiz-adv-x="978" />
<glyph unicode="&#x2003;" horiz-adv-x="1956" />
<glyph unicode="&#x2004;" horiz-adv-x="652" />
<glyph unicode="&#x2005;" horiz-adv-x="489" />
<glyph unicode="&#x2006;" horiz-adv-x="326" />
<glyph unicode="&#x2007;" horiz-adv-x="326" />
<glyph unicode="&#x2008;" horiz-adv-x="244" />
<glyph unicode="&#x2009;" horiz-adv-x="391" />
<glyph unicode="&#x200a;" horiz-adv-x="108" />
<glyph unicode="&#x2010;" horiz-adv-x="778" d="M76 420l49 348h639l-49 -348h-639z" />
<glyph unicode="&#x2011;" horiz-adv-x="778" d="M76 420l49 348h639l-49 -348h-639z" />
<glyph unicode="&#x2012;" horiz-adv-x="778" d="M76 420l49 348h639l-49 -348h-639z" />
<glyph unicode="&#x2013;" horiz-adv-x="1110" d="M72 420l49 346h981l-49 -346h-981z" />
<glyph unicode="&#x2014;" horiz-adv-x="1792" d="M100 420l50 346h1589l-49 -346h-1590z" />
<glyph unicode="&#x2018;" horiz-adv-x="544" d="M96 1008l293 444h322l-201 -444h-414z" />
<glyph unicode="&#x2019;" horiz-adv-x="632" d="M205 1024l178 422h414l-271 -422h-321z" />
<glyph unicode="&#x201a;" horiz-adv-x="526" d="M-129 -213l213 449h399l-303 -449h-309z" />
<glyph unicode="&#x201c;" horiz-adv-x="1126" d="M152 1008l292 444h322l-201 -444h-413zM631 1008l293 444h321l-201 -444h-413z" />
<glyph unicode="&#x201d;" horiz-adv-x="1060" d="M160 1024l178 422h414l-271 -422h-321zM633 1024l178 422h414l-271 -422h-321z" />
<glyph unicode="&#x201e;" horiz-adv-x="1015" d="M-90 -213l209 426h399l-299 -426h-309zM367 -213l208 426h402l-299 -426h-311z" />
<glyph unicode="&#x2022;" horiz-adv-x="847" d="M135 678q20 137 131 234.5t250 97.5q137 0 220 -98t63 -234q-20 -138 -130.5 -236t-246.5 -98q-139 0 -223 98t-64 236z" />
<glyph unicode="&#x2026;" horiz-adv-x="1734" d="M119 195q12 85 80 143.5t155 58.5q85 0 135.5 -58.5t38.5 -143.5q-12 -86 -79 -146.5t-152 -60.5q-87 0 -138.5 60t-39.5 147zM662 195q12 85 78 143.5t151 58.5q88 0 139 -58.5t39 -143.5q-12 -87 -80 -147t-155 -60q-84 0 -134 60t-38 147zM1200 195q12 85 79 143.5 t153 58.5q88 0 138 -58t38 -144q-12 -87 -79 -147t-155 -60q-86 0 -136 60t-38 147z" />
<glyph unicode="&#x202f;" horiz-adv-x="391" />
<glyph unicode="&#x2039;" horiz-adv-x="692" d="M68 588l395 487l270 -178l-254 -307q23 -46 82.5 -158t83.5 -160l-321 -174z" />
<glyph unicode="&#x203a;" horiz-adv-x="710" d="M41 272l256 316l-166 309l322 176l258 -485l-392 -488z" />
<glyph unicode="&#x205f;" horiz-adv-x="489" />
<glyph unicode="&#x20ac;" horiz-adv-x="1232" d="M57 457l76 221h55l9 63h-101l78 222h55v8q14 96 57.5 177.5t107 139t143 98.5t166 60.5t174.5 19.5q56 0 109 -9.5t107.5 -33.5t99.5 -61t84 -95.5t62 -133.5l-315 -121q-21 52 -70 82.5t-106 33t-111.5 -12.5t-94 -53.5t-46.5 -90.5v-8h365l-80 -222h-318l-8 -63h365 l-78 -221h-316q1 -46 32.5 -79.5t81 -45t104 -6t106.5 39.5t82 89l299 -148q-109 -165 -263.5 -245t-305.5 -80q-107 0 -201.5 30.5t-167 87.5t-110 149.5t-25.5 207.5h-101z" />
<glyph unicode="&#x2122;" horiz-adv-x="1679" d="M133 1120l47 332h703l-47 -332h-185l-73 -528h-338l73 528h-180zM821 596l121 856h281l104 -270l182 270h273l-121 -856h-305l41 244l-107 -150h-51l-72 152l-30 -246h-316z" />
<glyph unicode="&#x25fc;" horiz-adv-x="1064" d="M0 0v1065h1065v-1065h-1065z" />
</font>
</defs>
</svg>
